<svg xmlns="http://www.w3.org/2000/svg" xmlns:xlink="http://www.w3.org/1999/xlink" width="1920" zoomAndPan="magnify" viewBox="0 0 1440 344.999992" height="460" preserveAspectRatio="xMidYMid meet" version="1.0"><defs><g/><clipPath id="2a05f77ee5"><path d="M 1159 42 L 1440 42 L 1440 294 L 1159 294 Z M 1159 42 " clip-rule="nonzero"/></clipPath><clipPath id="c2f2901134"><rect x="0" width="1440" y="0" height="345"/></clipPath></defs><rect x="-144" width="1728" fill="#ffffff" y="-34.499999" height="413.99999" fill-opacity="1"/><rect x="-144" width="1728" fill="#f4f4f4" y="-34.499999" height="413.99999" fill-opacity="1"/><g transform="matrix(1, 0, 0, 1, 0, 0)"><g clip-path="url(#c2f2901134)"><g fill="#000000" fill-opacity="1"><g transform="translate(-2.326807, 293.710078)"><g><path d="M 95.3125 0 L 6.203125 -251.234375 L 92.390625 -251.234375 L 142.78125 -83.265625 L 144.25 -83.265625 L 195 -251.234375 L 277.53125 -251.234375 L 188.796875 0 Z M 95.3125 0 "/></g></g></g><g fill="#000000" fill-opacity="1"><g transform="translate(242.70601, 293.710078)"><g><path d="M 27.015625 -251.234375 L 244.296875 -251.234375 L 244.296875 -190.984375 L 107.71875 -190.984375 L 107.71875 -156.296875 L 224.578125 -156.296875 L 224.578125 -98.59375 L 107.71875 -98.59375 L 107.71875 -60.25 L 246.859375 -60.25 L 246.859375 0 L 27.015625 0 Z M 27.015625 -251.234375 "/></g></g></g><g fill="#000000" fill-opacity="1"><g transform="translate(467.288912, 293.710078)"><g><path d="M 265.484375 -174.1875 C 265.484375 -158.851562 261.34375 -144.976562 253.0625 -132.5625 C 244.78125 -120.144531 232.726562 -111.015625 216.90625 -105.171875 L 272.78125 0 L 182.21875 0 L 137.671875 -91.65625 L 107.71875 -91.65625 L 107.71875 0 L 27.015625 0 L 27.015625 -251.234375 L 180.765625 -251.234375 C 198.773438 -251.234375 214.171875 -247.765625 226.953125 -240.828125 C 239.734375 -233.890625 249.347656 -224.515625 255.796875 -212.703125 C 262.253906 -200.898438 265.484375 -188.0625 265.484375 -174.1875 Z M 183.3125 -170.90625 C 183.3125 -177.476562 181.117188 -182.953125 176.734375 -187.328125 C 172.359375 -191.710938 167.003906 -193.90625 160.671875 -193.90625 L 107.71875 -193.90625 L 107.71875 -147.53125 L 160.671875 -147.53125 C 167.003906 -147.53125 172.359375 -149.78125 176.734375 -154.28125 C 181.117188 -158.789062 183.3125 -164.332031 183.3125 -170.90625 Z M 183.3125 -170.90625 "/></g></g></g><g fill="#000000" fill-opacity="1"><g transform="translate(709.03513, 293.710078)"><g><path d="M 171.625 -186.96875 L 171.625 0 L 90.921875 0 L 90.921875 -186.96875 L 8.40625 -186.96875 L 8.40625 -251.234375 L 253.796875 -251.234375 L 253.796875 -186.96875 Z M 171.625 -186.96875 "/></g></g></g><g fill="#000000" fill-opacity="1"><g transform="translate(933.618001, 293.710078)"><g><path d="M 27.015625 -251.234375 L 244.296875 -251.234375 L 244.296875 -190.984375 L 107.71875 -190.984375 L 107.71875 -156.296875 L 224.578125 -156.296875 L 224.578125 -98.59375 L 107.71875 -98.59375 L 107.71875 -60.25 L 246.859375 -60.25 L 246.859375 0 L 27.015625 0 Z M 27.015625 -251.234375 "/></g></g></g><g clip-path="url(#2a05f77ee5)"><g fill="#000000" fill-opacity="1"><g transform="translate(1158.200933, 293.710078)"><g><path d="M 284.109375 0 L 186.234375 0 L 139.859375 -78.140625 L 138.40625 -78.140625 L 92.015625 0 L 1.453125 0 L 91.296875 -132.921875 L 10.21875 -251.234375 L 107.71875 -251.234375 L 145.703125 -186.96875 L 147.171875 -186.96875 L 185.5 -251.234375 L 275.703125 -251.234375 L 194.265625 -132.5625 Z M 284.109375 0 "/></g></g></g></g></g></g></svg>